<svg fill="none" height="100%" width="100%" viewBox="0 0 512 512" xmlns:xlink="http://www.w3.org/1999/xlink" xmlns="http://www.w3.org/2000/svg"><g id="i0"><g transform="translate(256,413)"><g transform="scale(0.4,0.4)"><animateTransform repeatCount="indefinite" type="scale" attributeName="transform" dur="3s" begin="0s" calcMode="spline" values="0.4 0.4; 1 1; 1.12 1.12; 0.4 0.4; 0.4 0.4; 1 1; 1.13 1.13; 0.4 0.4; 0.4 0.4" keyTimes="0; 0.155555; 0.211111; 0.266667; 0.5; 0.633333; 0.688889; 0.744444; 1" keySplines="0 0 1 1; 0 0 1 1; 0 0 1 1; 0 0 1 1; 0 0 1 1; 0 0 1 1; 0 0 1 1; 0 0 1 1" fill="freeze" /><g transform="translate(3,-158)"><g id="i1" transform="matrix(1,0,0,1,-4,159)"><ellipse ry="31" rx="128" cy="0" cx="0" stroke-width="0" stroke="#3636e2" fill="#808080" /></g></g></g></g></g><g id="i2"><g transform="translate(256,200)"><animateTransform repeatCount="indefinite" type="translate" attributeName="transform" dur="3s" begin="0s" calcMode="spline" values="256 200; 256 277.154; 256 320; 256 256.44; 256 200; 256 256; 256 310; 256 250.928; 256 200; 256 200" keyTimes="0; 0.155556; 0.211111; 0.266666; 0.422222; 0.633333; 0.688888; 0.744444; 0.844444; 1" keySplines="0.333 0 0.667 0.593; 0.333 0.262 0.667 1; 0.333 0 0.667 0.807; 0.333 0.608 0.667 1; 0.333 0 0.667 0.284; 0.333 0.208 0.667 1; 0.333 0 0.667 0.695; 0.333 0.638 0.667 1; 0 0 1 1" fill="freeze" /><g transform="rotate(0)"><animateTransform repeatCount="indefinite" type="rotate" attributeName="transform" dur="3s" begin="0s" calcMode="spline" values="0; 90; 90; 180; 270; 270; 360; 360" keyTimes="0; 0.155556; 0.266666; 0.5; 0.622223; 0.744444; 0.933333; 1" keySplines="0 0 1 1; 0 0 1 1; 0 0 1 1; 0 0 1 1; 0 0 1 1; 0 0 1 1; 0 0 1 1" fill="freeze" /><g transform="scale(3.18,3.14)"><animateTransform repeatCount="indefinite" type="scale" attributeName="transform" dur="3s" begin="0s" calcMode="spline" values="3.18 3.14; 3.18 3.14; 2.25 3.38; 3.18 3.18; 3.18 3.14; 2.09 3.18; 3.18 3.18; 3.18 3.18" keyTimes="0; 0.155555; 0.211111; 0.266667; 0.633333; 0.688889; 0.744444; 1" keySplines="0.333 0 0.667 1; 0.333 0 0.667 1; 0.333 0 0.667 1; 0.333 0 0.667 1; 0.333 0 0.667 1; 0.333 0 0.667 1; 0 0 1 1" fill="freeze" /><g transform="translate(-51,-51)"><g transform="matrix(0.463,0,0,0.468,0.413,-1.754)" id="i3"><g id="i4" transform="matrix(1,0,0,1,108.524,108.525)" stroke-width="7" stroke="#005166"><path fill="#0891b2" d="M0,-108.275C29.897,-108.275,56.969,-96.154,76.562,-76.561C96.153,-56.969,108.274,-29.899,108.274,0C108.274,29.9,96.153,56.969,76.562,76.561C56.969,96.154,29.897,108.275,0,108.275C-29.899,108.275,-56.969,96.154,-76.562,76.561C-96.155,56.969,-108.274,29.9,-108.274,0C-108.274,-29.899,-96.155,-56.969,-76.562,-76.561C-56.969,-96.154,-29.899,-108.275,0,-108.275Z" /></g></g></g></g></g></g></g><g id="i2"><g transform="translate(256,200)"><animateTransform repeatCount="indefinite" type="translate" attributeName="transform" dur="3s" begin="0s" calcMode="spline" values="256 200; 256 277.154; 256 320; 256 256.44; 256 200; 256 256; 256 310; 256 250.928; 256 200; 256 200" keyTimes="0; 0.155556; 0.211111; 0.266666; 0.422222; 0.633333; 0.688888; 0.744444; 0.844444; 1" keySplines="0.333 0 0.667 0.593; 0.333 0.262 0.667 1; 0.333 0 0.667 0.807; 0.333 0.608 0.667 1; 0.333 0 0.667 0.284; 0.333 0.208 0.667 1; 0.333 0 0.667 0.695; 0.333 0.638 0.667 1; 0 0 1 1" fill="freeze" /><g transform="rotate(0)"><animateTransform repeatCount="indefinite" type="rotate" attributeName="transform" dur="3s" begin="0s" calcMode="spline" values="0; 90; 90; 180; 270; 270; 360; 360" keyTimes="0; 0.155556; 0.266666; 0.5; 0.622223; 0.744444; 0.933333; 1" keySplines="0 0 1 1; 0 0 1 1; 0 0 1 1; 0 0 1 1; 0 0 1 1; 0 0 1 1; 0 0 1 1" fill="freeze" /><g transform="scale(3.18,3.14)"><animateTransform repeatCount="indefinite" type="scale" attributeName="transform" dur="3s" begin="0s" calcMode="spline" values="3.18 3.14; 3.18 3.14; 2.25 3.38; 3.18 3.18; 3.18 3.14; 2.09 3.18; 3.18 3.18; 3.18 3.18" keyTimes="0; 0.155555; 0.211111; 0.266667; 0.633333; 0.688889; 0.744444; 1" keySplines="0.333 0 0.667 1; 0.333 0 0.667 1; 0.333 0 0.667 1; 0.333 0 0.667 1; 0.333 0 0.667 1; 0.333 0 0.667 1; 0 0 1 1" fill="freeze" /><g transform="translate(-51,-51)"><g transform="matrix(0.463,0,0,0.468,3.379,3.412)" id="i5"><g id="i4" transform="matrix(1,0,0,1,102.113,99.371)" stroke-width="14" stroke="#005166"><path fill="#ffffff" fill-rule="evenodd" d="M-84.546,-59.624C-84.546,-59.624,-79.883,-45.274,-79.883,-45.274C-79.883,-45.274,-73.65,-26.094,-73.65,-26.094C-73.65,-26.094,-35.782,-13.789,-35.782,-13.789C-35.782,-13.789,-19.465,-25.642,-19.465,-25.642C-19.465,-25.642,-3.652,-37.131,-3.652,-37.131C-3.652,-37.131,-3.652,-77.68,-3.652,-77.68C-3.652,-77.68,-19.467,-89.167,-19.467,-89.167C-19.467,-89.167,-33.161,-99.119,-33.161,-99.119C-47.956,-94.029,-61.211,-85.627,-72.04,-74.798C-76.676,-70.162,-80.867,-65.081,-84.546,-59.624ZM3.151,-37.496C3.151,-37.496,19.466,-25.642,19.466,-25.642C19.466,-25.642,35.281,-14.154,35.281,-14.154C35.281,-14.154,73.843,-26.683,73.843,-26.683C73.843,-26.683,79.882,-45.274,79.882,-45.274C79.882,-45.274,84.545,-59.621,84.545,-59.621C80.867,-65.08,76.676,-70.162,72.039,-74.798C61.212,-85.627,47.955,-94.028,33.159,-99.12C33.159,-99.12,19.466,-89.169,19.466,-89.169C19.466,-89.169,3.151,-77.315,3.151,-77.315C3.151,-77.315,3.151,-37.496,3.151,-37.496ZM101.863,-1.02C101.455,23.261,92.555,45.476,78.003,62.778C78.003,62.778,68.836,62.776,68.836,62.776C68.836,62.776,49.291,62.778,49.291,62.778C49.291,62.778,25.457,29.974,25.457,29.974C25.457,29.974,31.497,11.384,31.497,11.384C31.497,11.384,37.73,-7.796,37.73,-7.796C37.73,-7.796,75.599,-20.099,75.599,-20.099C75.599,-20.099,91.914,-8.246,91.914,-8.246C91.914,-8.246,101.863,-1.02,101.863,-1.02ZM34.97,92.96C34.97,92.96,37.341,85.661,37.341,85.661C37.341,85.661,43.572,66.481,43.572,66.481C43.572,66.481,20.166,34.267,20.166,34.267C20.166,34.267,0,34.267,0,34.267C0,34.267,-19.546,34.267,-19.546,34.267C-19.546,34.267,-43.379,67.071,-43.379,67.071C-43.379,67.071,-37.339,85.661,-37.339,85.661C-37.339,85.661,-34.968,92.96,-34.968,92.96C-24.063,96.944,-12.285,99.12,0,99.12C12.285,99.12,24.064,96.944,34.97,92.96ZM-78.003,62.776C-92.554,45.474,-101.455,23.262,-101.863,-1.017C-101.863,-1.017,-91.913,-8.246,-91.913,-8.246C-91.913,-8.246,-76.099,-19.737,-76.099,-19.737C-76.099,-19.737,-37.538,-7.206,-37.538,-7.206C-37.538,-7.206,-31.498,11.385,-31.498,11.385C-31.498,11.385,-25.264,30.563,-25.264,30.563C-25.264,30.563,-48.67,62.778,-48.67,62.778C-48.67,62.778,-68.836,62.778,-68.836,62.778C-68.836,62.778,-78.003,62.776,-78.003,62.776Z" /></g></g></g></g></g></g></g><g opacity="0" id="i2"><g transform="translate(256,200)"><animateTransform repeatCount="indefinite" type="translate" attributeName="transform" dur="3s" begin="0s" calcMode="spline" values="256 200; 256 277.154; 256 320; 256 256.44; 256 200; 256 256; 256 310; 256 250.928; 256 200; 256 200" keyTimes="0; 0.155556; 0.211111; 0.266666; 0.422222; 0.633333; 0.688888; 0.744444; 0.844444; 1" keySplines="0.333 0 0.667 0.593; 0.333 0.262 0.667 1; 0.333 0 0.667 0.807; 0.333 0.608 0.667 1; 0.333 0 0.667 0.284; 0.333 0.208 0.667 1; 0.333 0 0.667 0.695; 0.333 0.638 0.667 1; 0 0 1 1" fill="freeze" /><g transform="rotate(0)"><animateTransform repeatCount="indefinite" type="rotate" attributeName="transform" dur="3s" begin="0s" calcMode="spline" values="0; 90; 90; 180; 270; 270; 360; 360" keyTimes="0; 0.155556; 0.266666; 0.5; 0.622223; 0.744444; 0.933333; 1" keySplines="0 0 1 1; 0 0 1 1; 0 0 1 1; 0 0 1 1; 0 0 1 1; 0 0 1 1; 0 0 1 1" fill="freeze" /><g transform="scale(3.18,3.14)"><animateTransform repeatCount="indefinite" type="scale" attributeName="transform" dur="3s" begin="0s" calcMode="spline" values="3.18 3.14; 3.18 3.14; 2.25 3.38; 3.18 3.18; 3.18 3.14; 2.09 3.18; 3.18 3.18; 3.18 3.18" keyTimes="0; 0.155555; 0.211111; 0.266667; 0.633333; 0.688889; 0.744444; 1" keySplines="0.333 0 0.667 1; 0.333 0 0.667 1; 0.333 0 0.667 1; 0.333 0 0.667 1; 0.333 0 0.667 1; 0.333 0 0.667 1; 0 0 1 1" fill="freeze" /><g transform="translate(-51,-51)" /></g></g></g></g></svg>